<?xml version="1.0" encoding="utf-8"?>
<!-- Generator: Adobe Illustrator 16.0.0, SVG Export Plug-In . SVG Version: 6.00 Build 0)  -->
<!DOCTYPE svg PUBLIC "-//W3C//DTD SVG 1.1//EN" "http://www.w3.org/Graphics/SVG/1.1/DTD/svg11.dtd">
<svg version="1.1" id="Layer_1" xmlns="http://www.w3.org/2000/svg" xmlns:xlink="http://www.w3.org/1999/xlink" x="0px" y="0px"
	 width="280.658px" height="42.04px" viewBox="0 0 280.658 42.04" enable-background="new 0 0 280.658 42.04" xml:space="preserve">
<g>
	<path fill="#FFFFFF" d="M5.409,10.625v3.672c0,0.716,0.044,1.167,0.133,1.353c0.088,0.186,0.244,0.333,0.469,0.444
		c0.226,0.111,0.638,0.166,1.238,0.166v0.361h-6.74V16.26c0.613,0,1.028-0.057,1.247-0.171s0.372-0.262,0.46-0.444
		s0.132-0.631,0.132-1.348V5.703c0-0.716-0.044-1.167-0.132-1.353S1.973,4.017,1.751,3.906S1.115,3.74,0.509,3.74V3.379H6.29
		c1.904,0,3.271,0.338,4.099,1.016s1.242,1.523,1.242,2.539c0,0.859-0.268,1.595-0.802,2.207c-0.535,0.612-1.271,1.029-2.211,1.25
		C7.985,10.547,6.916,10.625,5.409,10.625z M5.409,4.141v5.723c0.216,0.013,0.379,0.02,0.489,0.02c0.796,0,1.409-0.236,1.839-0.708
		c0.431-0.472,0.646-1.203,0.646-2.192C8.383,6,8.168,5.28,7.737,4.824c-0.43-0.456-1.072-0.684-1.927-0.684H5.409z"/>
	<path fill="#FFFFFF" d="M19.94,11.729h-5.019c0.059,1.211,0.382,2.168,0.969,2.871c0.449,0.541,0.991,0.811,1.623,0.811
		c0.392,0,0.747-0.109,1.066-0.327s0.662-0.61,1.027-1.177l0.333,0.215c-0.496,1.009-1.044,1.724-1.644,2.144
		c-0.601,0.42-1.295,0.63-2.084,0.63c-1.356,0-2.384-0.521-3.081-1.563c-0.562-0.84-0.842-1.881-0.842-3.125
		c0-1.523,0.413-2.736,1.237-3.638c0.825-0.902,1.792-1.353,2.9-1.353c0.927,0,1.73,0.379,2.412,1.138
		C19.521,9.113,19.888,10.238,19.94,11.729z M17.533,11.074c0-1.048-0.057-1.768-0.171-2.158s-0.292-0.687-0.533-0.889
		c-0.137-0.117-0.319-0.176-0.548-0.176c-0.339,0-0.616,0.166-0.831,0.498c-0.385,0.58-0.577,1.374-0.577,2.383v0.342H17.533z"/>
	<path fill="#FFFFFF" d="M31.381,7.49v0.361c-0.431,0.045-0.711,0.161-0.842,0.347c-0.13,0.186-0.195,0.578-0.195,1.177v5.439
		c0,0.573,0.071,0.954,0.215,1.143s0.418,0.29,0.822,0.303v0.361h-4.656V16.26c0.404,0,0.651-0.107,0.743-0.322
		c0.091-0.215,0.137-0.566,0.137-1.055V8.105h-2.621v6.709c0,0.599,0.059,0.99,0.176,1.172s0.355,0.273,0.714,0.273v0.361h-4.656
		V16.26c0.397-0.006,0.669-0.107,0.813-0.303c0.143-0.195,0.215-0.612,0.215-1.25V9.248c0-0.599-0.08-0.981-0.239-1.147
		c-0.16-0.166-0.423-0.249-0.788-0.249V7.49H31.381z"/>
	<path fill="#FFFFFF" d="M37.907,16.992l-2.954-6.768c-0.443-1.022-0.771-1.65-0.982-1.885s-0.469-0.397-0.769-0.488V7.49h4.862
		v0.361c-0.32,0.013-0.545,0.075-0.675,0.186c-0.131,0.111-0.196,0.244-0.196,0.4c0,0.248,0.163,0.736,0.489,1.465l1.565,3.574
		l1.066-2.764c0.385-0.983,0.577-1.667,0.577-2.051c0-0.241-0.08-0.433-0.24-0.576s-0.441-0.221-0.846-0.234V7.49h3.062v0.361
		c-0.3,0.033-0.545,0.148-0.733,0.347c-0.189,0.199-0.506,0.874-0.949,2.026l-2.611,6.768c-0.659,1.693-1.148,2.734-1.468,3.125
		c-0.45,0.547-1.014,0.82-1.692,0.82c-0.541,0-0.979-0.155-1.315-0.464s-0.504-0.682-0.504-1.118c0-0.377,0.115-0.69,0.348-0.938
		c0.231-0.248,0.517-0.371,0.855-0.371c0.326,0,0.589,0.104,0.787,0.313c0.199,0.208,0.302,0.531,0.309,0.967
		c0.007,0.248,0.036,0.407,0.088,0.479s0.127,0.107,0.225,0.107c0.157,0,0.323-0.094,0.499-0.283
		c0.261-0.273,0.567-0.898,0.92-1.875L37.907,16.992z"/>
	<path fill="#FFFFFF" d="M51.856,3.076h0.333c-0.065,0.488-0.36,1.058-0.886,1.709c-0.524,0.651-1.25,0.977-2.177,0.977
		c-0.137,0-0.358-0.013-0.665-0.039c-0.273-0.02-0.485-0.029-0.636-0.029c-0.828,0-1.559,0.304-2.191,0.913
		c-0.632,0.609-0.997,1.61-1.095,3.003c0.841-1.595,2.008-2.393,3.502-2.393c1.199,0,2.217,0.441,3.052,1.323
		s1.252,2.059,1.252,3.53c0,1.322-0.367,2.456-1.101,3.403s-1.792,1.421-3.174,1.421c-1.344,0-2.396-0.474-3.16-1.421
		c-0.763-0.947-1.145-2.397-1.145-4.351c0-1.51,0.209-2.905,0.626-4.185c0.418-1.279,0.993-2.202,1.727-2.769
		c0.734-0.566,1.834-0.85,3.302-0.85c0.17,0,0.372,0.006,0.606,0.02c0.294,0.02,0.502,0.029,0.626,0.029
		C51.031,3.369,51.433,3.271,51.856,3.076z M48.062,7.9c-0.555,0-0.928,0.324-1.12,0.972s-0.289,1.727-0.289,3.237
		c0,1.68,0.102,2.785,0.304,3.315s0.577,0.796,1.125,0.796c0.332,0,0.614-0.14,0.846-0.42s0.382-0.729,0.45-1.348
		s0.103-1.729,0.103-3.33c0-1.009-0.091-1.798-0.273-2.368S48.642,7.9,48.062,7.9z"/>
	<path fill="#FFFFFF" d="M58.734,16.621V16.26c0.326-0.006,0.595-0.086,0.807-0.239s0.318-0.497,0.318-1.03V8.105h-2.583V12.1
		c0,1.439-0.071,2.432-0.215,2.979s-0.421,0.967-0.832,1.26c-0.41,0.293-0.848,0.439-1.311,0.439c-0.521,0-0.94-0.158-1.257-0.474
		s-0.475-0.679-0.475-1.089c0-0.397,0.116-0.721,0.348-0.972s0.529-0.376,0.895-0.376c0.698,0,1.047,0.423,1.047,1.27
		c0,0.384,0.075,0.576,0.226,0.576c0.286,0,0.508-0.238,0.665-0.713c0.156-0.475,0.234-1.442,0.234-2.9V9.443
		c0-0.599-0.081-1.009-0.244-1.23s-0.444-0.342-0.842-0.361V7.49h8.061v0.361c-0.652,0.013-0.979,0.423-0.979,1.23v5.869
		c0,0.449,0.069,0.776,0.206,0.981s0.395,0.314,0.772,0.327v0.361H58.734z"/>
	<path fill="#FFFFFF" d="M70.28,16.621V16.26c0.587,0,0.88-0.436,0.88-1.309v-4.473l-2.621,4.473
		c0.006,0.853,0.303,1.289,0.89,1.309v0.361h-4.656V16.26c0.372,0,0.636-0.104,0.793-0.313c0.156-0.208,0.234-0.573,0.234-1.094
		V9.219c0-0.912-0.343-1.367-1.027-1.367V7.49h4.656v0.361c-0.339,0.013-0.572,0.111-0.699,0.293s-0.19,0.541-0.19,1.074v4.453
		l2.621-4.531c-0.007-0.482-0.078-0.817-0.215-1.006s-0.358-0.283-0.665-0.283V7.49h4.656v0.361
		c-0.353,0.006-0.613,0.094-0.783,0.264c-0.169,0.169-0.254,0.495-0.254,0.977v5.811c0,0.541,0.076,0.902,0.229,1.084
		s0.423,0.273,0.808,0.273v0.361H70.28z"/>
	<path fill="#FFFFFF" d="M76.286,7.49h4.656v0.361c-0.352,0.013-0.588,0.111-0.709,0.293s-0.181,0.57-0.181,1.162v2.246
		c0.73,0,1.23-0.119,1.501-0.356s0.53-0.692,0.778-1.362c0.346-0.944,0.695-1.597,1.051-1.958s0.84-0.542,1.453-0.542
		c0.515,0,0.965,0.145,1.35,0.435s0.577,0.672,0.577,1.147c0,0.365-0.112,0.675-0.337,0.933c-0.226,0.257-0.518,0.386-0.876,0.386
		c-0.737,0-1.111-0.377-1.125-1.133c-0.006-0.527-0.12-0.791-0.342-0.791c-0.333,0-0.669,0.446-1.008,1.338
		c-0.274,0.729-0.463,1.188-0.567,1.377s-0.284,0.397-0.538,0.625c0.658,0.13,1.137,0.306,1.433,0.527
		c0.297,0.221,0.687,0.726,1.17,1.514l0.87,1.396c0.456,0.742,0.936,1.133,1.438,1.172v0.361h-3.522l-2.719-4.443h-0.587v2.539
		c0,0.573,0.068,0.968,0.205,1.187s0.365,0.337,0.685,0.356v0.361h-4.656V16.26c0.307-0.006,0.555-0.088,0.743-0.244
		c0.189-0.156,0.284-0.553,0.284-1.191V9.434c0-0.605-0.073-1.021-0.22-1.245c-0.147-0.225-0.416-0.337-0.808-0.337V7.49z"/>
	<path fill="#FFFFFF" d="M92.819,15.273c-1.115,0.983-2.116,1.475-3.003,1.475c-0.522,0-0.956-0.171-1.302-0.513
		s-0.518-0.77-0.518-1.284c0-0.697,0.3-1.323,0.899-1.88s1.907-1.297,3.923-2.222V9.932c0-0.69-0.038-1.125-0.112-1.304
		c-0.075-0.179-0.217-0.335-0.426-0.469s-0.443-0.2-0.704-0.2c-0.424,0-0.773,0.094-1.047,0.283c-0.17,0.117-0.255,0.254-0.255,0.41
		c0,0.137,0.092,0.306,0.274,0.508c0.248,0.28,0.372,0.55,0.372,0.811c0,0.319-0.119,0.591-0.357,0.815s-0.55,0.337-0.935,0.337
		c-0.41,0-0.755-0.124-1.031-0.371c-0.277-0.248-0.416-0.537-0.416-0.869c0-0.469,0.186-0.917,0.558-1.343
		c0.371-0.426,0.89-0.753,1.556-0.981c0.665-0.228,1.355-0.342,2.073-0.342c0.867,0,1.554,0.184,2.06,0.552
		c0.505,0.368,0.833,0.767,0.982,1.196c0.092,0.273,0.138,0.902,0.138,1.885v3.545c0,0.417,0.016,0.679,0.049,0.786
		c0.032,0.107,0.081,0.187,0.146,0.239s0.14,0.078,0.225,0.078c0.17,0,0.343-0.121,0.519-0.361l0.294,0.234
		c-0.326,0.482-0.664,0.832-1.013,1.05s-0.745,0.327-1.188,0.327c-0.521,0-0.93-0.122-1.223-0.366
		C93.063,16.138,92.885,15.768,92.819,15.273z M92.819,14.561v-3.057c-0.789,0.462-1.376,0.957-1.761,1.484
		c-0.255,0.352-0.382,0.707-0.382,1.064c0,0.299,0.107,0.563,0.323,0.791c0.163,0.176,0.391,0.264,0.685,0.264
		C92.011,15.107,92.389,14.925,92.819,14.561z"/>
	<path fill="#FFFFFF" d="M116.494,3.076v4.59h-0.382c-0.286-1.198-0.821-2.116-1.604-2.754c-0.783-0.638-1.67-0.957-2.661-0.957
		c-0.828,0-1.588,0.238-2.279,0.713s-1.196,1.097-1.516,1.865c-0.411,0.983-0.617,2.077-0.617,3.281c0,1.185,0.15,2.264,0.45,3.237
		s0.77,1.709,1.409,2.207c0.639,0.498,1.467,0.747,2.484,0.747c0.835,0,1.6-0.182,2.294-0.547s1.427-0.993,2.196-1.885v1.143
		c-0.744,0.775-1.519,1.336-2.323,1.685c-0.806,0.348-1.746,0.522-2.822,0.522c-1.415,0-2.673-0.283-3.771-0.85
		s-1.946-1.38-2.543-2.441s-0.896-2.191-0.896-3.389c0-1.263,0.331-2.461,0.993-3.594s1.556-2.012,2.681-2.637
		s2.319-0.938,3.585-0.938c0.933,0,1.917,0.202,2.954,0.605c0.6,0.234,0.981,0.352,1.145,0.352c0.209,0,0.39-0.077,0.543-0.229
		s0.253-0.396,0.298-0.728H116.494z"/>
	<path fill="#FFFFFF" d="M122.347,15.693v3.398c0,0.469,0.038,0.788,0.112,0.957c0.075,0.169,0.191,0.293,0.348,0.371
		s0.463,0.117,0.92,0.117v0.361h-5.214v-0.361c0.404-0.013,0.704-0.127,0.899-0.342c0.131-0.15,0.196-0.537,0.196-1.162V9.395
		c0-0.645-0.075-1.056-0.226-1.235s-0.44-0.282-0.87-0.308V7.49h3.834v1.201c0.319-0.469,0.646-0.807,0.979-1.016
		c0.476-0.306,0.994-0.459,1.556-0.459c0.671,0,1.282,0.211,1.834,0.635c0.551,0.423,0.97,1.007,1.257,1.753
		s0.431,1.548,0.431,2.407c0,0.924-0.148,1.769-0.445,2.534s-0.728,1.348-1.291,1.748c-0.564,0.4-1.192,0.601-1.884,0.601
		c-0.502,0-0.972-0.111-1.408-0.332C123.048,16.393,122.705,16.104,122.347,15.693z M122.347,14.707
		c0.562,0.794,1.161,1.191,1.8,1.191c0.353,0,0.643-0.186,0.871-0.557c0.339-0.547,0.509-1.588,0.509-3.125
		c0-1.576-0.187-2.653-0.558-3.232c-0.248-0.384-0.581-0.576-0.998-0.576c-0.658,0-1.2,0.475-1.624,1.426V14.707z"/>
	<path fill="#FFFFFF" d="M137.954,3.076h0.333c-0.065,0.488-0.36,1.058-0.886,1.709c-0.524,0.651-1.25,0.977-2.177,0.977
		c-0.137,0-0.358-0.013-0.665-0.039c-0.273-0.02-0.485-0.029-0.636-0.029c-0.828,0-1.559,0.304-2.191,0.913
		c-0.632,0.609-0.997,1.61-1.095,3.003c0.841-1.595,2.008-2.393,3.502-2.393c1.199,0,2.217,0.441,3.052,1.323
		s1.252,2.059,1.252,3.53c0,1.322-0.367,2.456-1.101,3.403s-1.792,1.421-3.174,1.421c-1.344,0-2.396-0.474-3.16-1.421
		c-0.763-0.947-1.145-2.397-1.145-4.351c0-1.51,0.209-2.905,0.626-4.185c0.418-1.279,0.993-2.202,1.727-2.769
		c0.734-0.566,1.834-0.85,3.302-0.85c0.17,0,0.372,0.006,0.606,0.02c0.294,0.02,0.502,0.029,0.626,0.029
		C137.129,3.369,137.53,3.271,137.954,3.076z M134.159,7.9c-0.555,0-0.928,0.324-1.12,0.972s-0.289,1.727-0.289,3.237
		c0,1.68,0.102,2.785,0.304,3.315s0.577,0.796,1.125,0.796c0.332,0,0.614-0.14,0.846-0.42s0.382-0.729,0.45-1.348
		s0.103-1.729,0.103-3.33c0-1.009-0.091-1.798-0.273-2.368S134.739,7.9,134.159,7.9z"/>
	<path fill="#FFFFFF" d="M145.36,16.621V16.26c0.587,0,0.88-0.436,0.88-1.309v-4.473l-2.621,4.473
		c0.006,0.853,0.303,1.289,0.89,1.309v0.361h-4.656V16.26c0.372,0,0.636-0.104,0.793-0.313c0.156-0.208,0.234-0.573,0.234-1.094
		V9.219c0-0.912-0.343-1.367-1.027-1.367V7.49h4.656v0.361c-0.339,0.013-0.572,0.111-0.699,0.293s-0.19,0.541-0.19,1.074v4.453
		l2.621-4.531c-0.007-0.482-0.078-0.817-0.215-1.006s-0.358-0.283-0.665-0.283V7.49h4.656v0.361
		c-0.353,0.006-0.613,0.094-0.783,0.264c-0.169,0.169-0.254,0.495-0.254,0.977v5.811c0,0.541,0.076,0.902,0.229,1.084
		s0.423,0.273,0.808,0.273v0.361H145.36z"/>
	<path fill="#FFFFFF" d="M155.523,7.49v9.453c0,0.885-0.055,1.54-0.166,1.963c-0.163,0.612-0.487,1.104-0.974,1.475
		c-0.485,0.371-1.126,0.557-1.922,0.557c-0.802,0-1.394-0.163-1.775-0.488s-0.572-0.719-0.572-1.182c0-0.287,0.1-0.536,0.299-0.747
		c0.198-0.211,0.432-0.317,0.699-0.317c0.247,0,0.443,0.073,0.587,0.22s0.215,0.366,0.215,0.659c0,0.078-0.003,0.169-0.01,0.273
		c-0.013,0.137-0.02,0.231-0.02,0.283c0,0.228,0.052,0.397,0.156,0.508s0.238,0.166,0.401,0.166c0.15,0,0.279-0.065,0.387-0.195
		s0.161-0.316,0.161-0.557c0-0.13-0.02-0.394-0.059-0.791c-0.065-0.723-0.102-1.159-0.107-1.309l-0.029-2.314V9.502l0.01-0.508
		c0-0.41-0.07-0.692-0.211-0.845c-0.14-0.153-0.435-0.252-0.885-0.298V7.49H155.523z M154.154,3.076
		c0.417,0,0.771,0.145,1.062,0.435s0.436,0.64,0.436,1.05c0,0.417-0.147,0.771-0.44,1.064c-0.294,0.293-0.646,0.439-1.057,0.439
		s-0.763-0.146-1.057-0.439c-0.293-0.293-0.44-0.648-0.44-1.064c0-0.41,0.146-0.76,0.436-1.05S153.737,3.076,154.154,3.076z"/>
	<path fill="#FFFFFF" d="M162.888,15.273c-1.115,0.983-2.116,1.475-3.003,1.475c-0.522,0-0.956-0.171-1.302-0.513
		s-0.518-0.77-0.518-1.284c0-0.697,0.3-1.323,0.899-1.88s1.907-1.297,3.923-2.222V9.932c0-0.69-0.038-1.125-0.112-1.304
		c-0.075-0.179-0.217-0.335-0.426-0.469s-0.443-0.2-0.704-0.2c-0.424,0-0.773,0.094-1.047,0.283c-0.17,0.117-0.255,0.254-0.255,0.41
		c0,0.137,0.092,0.306,0.274,0.508c0.248,0.28,0.372,0.55,0.372,0.811c0,0.319-0.119,0.591-0.357,0.815s-0.55,0.337-0.935,0.337
		c-0.41,0-0.755-0.124-1.031-0.371c-0.277-0.248-0.416-0.537-0.416-0.869c0-0.469,0.186-0.917,0.558-1.343
		c0.371-0.426,0.89-0.753,1.556-0.981c0.665-0.228,1.355-0.342,2.073-0.342c0.867,0,1.554,0.184,2.06,0.552
		c0.505,0.368,0.833,0.767,0.982,1.196c0.092,0.273,0.138,0.902,0.138,1.885v3.545c0,0.417,0.016,0.679,0.049,0.786
		c0.032,0.107,0.081,0.187,0.146,0.239s0.14,0.078,0.225,0.078c0.17,0,0.343-0.121,0.519-0.361l0.294,0.234
		c-0.326,0.482-0.664,0.832-1.013,1.05s-0.745,0.327-1.188,0.327c-0.521,0-0.93-0.122-1.223-0.366
		C163.132,16.138,162.953,15.768,162.888,15.273z M162.888,14.561v-3.057c-0.789,0.462-1.376,0.957-1.761,1.484
		c-0.255,0.352-0.382,0.707-0.382,1.064c0,0.299,0.107,0.563,0.323,0.791c0.163,0.176,0.391,0.264,0.685,0.264
		C162.079,15.107,162.457,14.925,162.888,14.561z"/>
</g>
<g>
	<path fill="#FFFFFF" d="M8.334,31.717H3.648l-0.558,1.289c-0.183,0.43-0.273,0.785-0.273,1.064c0,0.371,0.149,0.645,0.45,0.82
		c0.176,0.105,0.609,0.184,1.301,0.234v0.361H0.156v-0.361c0.477-0.07,0.867-0.268,1.174-0.59s0.685-0.988,1.135-1.998l4.744-10.566
		h0.187l4.783,10.859c0.456,1.029,0.831,1.678,1.125,1.943c0.222,0.203,0.534,0.32,0.939,0.352v0.361H7.826v-0.361H8.09
		c0.515,0,0.877-0.07,1.086-0.215c0.144-0.104,0.215-0.254,0.215-0.449c0-0.117-0.02-0.236-0.059-0.361
		c-0.013-0.059-0.111-0.303-0.293-0.732L8.334,31.717z M8.002,30.995l-1.977-4.561l-2.034,4.561H8.002z"/>
	<path fill="#FFFFFF" d="M14.07,35.125c0.378-0.025,0.643-0.125,0.793-0.297c0.149-0.174,0.225-0.516,0.225-1.031v-5.801
		c0-0.461-0.07-0.783-0.21-0.961c-0.141-0.18-0.41-0.285-0.808-0.318v-0.361h8.041v2.383h-0.362
		c-0.149-0.742-0.355-1.223-0.616-1.439c-0.261-0.219-0.76-0.328-1.496-0.328h-1.81v6.885c0,0.457,0.074,0.779,0.225,0.967
		c0.15,0.189,0.453,0.291,0.91,0.303v0.361H14.07V35.125z"/>
	<path fill="#FFFFFF" d="M30.706,30.594h-5.019c0.059,1.211,0.382,2.168,0.969,2.871c0.449,0.541,0.991,0.811,1.623,0.811
		c0.392,0,0.747-0.109,1.066-0.326c0.319-0.219,0.662-0.611,1.027-1.178l0.333,0.215c-0.496,1.01-1.044,1.725-1.644,2.145
		c-0.601,0.42-1.295,0.629-2.084,0.629c-1.356,0-2.384-0.52-3.081-1.563c-0.562-0.84-0.842-1.881-0.842-3.125
		c0-1.523,0.413-2.736,1.237-3.637c0.825-0.902,1.792-1.354,2.9-1.354c0.927,0,1.73,0.379,2.412,1.139
		C30.286,27.979,30.653,29.104,30.706,30.594z M28.299,29.94c0-1.047-0.057-1.768-0.171-2.158s-0.292-0.686-0.533-0.889
		c-0.137-0.117-0.319-0.176-0.548-0.176c-0.339,0-0.616,0.166-0.831,0.498c-0.385,0.58-0.577,1.375-0.577,2.383v0.342H28.299z"/>
	<path fill="#FFFFFF" d="M31.859,35.487v-0.361c0.378,0,0.645-0.096,0.798-0.287c0.152-0.193,0.229-0.559,0.229-1.1v-5.605
		c0-0.572-0.075-0.951-0.225-1.137c-0.15-0.186-0.418-0.279-0.803-0.279v-0.361h4.656v0.361c-0.326,0.014-0.556,0.098-0.689,0.254
		s-0.2,0.512-0.2,1.064v2.412h2.621v-2.412c0-0.455-0.049-0.789-0.146-1c-0.098-0.213-0.343-0.318-0.733-0.318v-0.361h4.646v0.361
		c-0.379,0-0.645,0.094-0.798,0.279s-0.229,0.496-0.229,0.932v5.811c0,0.574,0.075,0.945,0.225,1.113
		c0.15,0.17,0.418,0.262,0.803,0.273v0.361h-4.646v-0.361c0.326-0.006,0.554-0.082,0.685-0.229c0.13-0.146,0.195-0.51,0.195-1.09
		v-2.744h-2.621v2.676c0,0.58,0.066,0.955,0.2,1.129c0.134,0.172,0.363,0.258,0.689,0.258v0.361H31.859z"/>
	<path fill="#FFFFFF" d="M53.166,35.125v2.764h-0.372c-0.065-0.754-0.331-1.344-0.797-1.768c-0.467-0.422-1.3-0.635-2.5-0.635
		h-6.495v-0.361c0.392,0,0.66-0.102,0.808-0.307c0.146-0.205,0.22-0.617,0.22-1.236v-5.41c0-0.656-0.082-1.063-0.244-1.215
		c-0.163-0.154-0.425-0.232-0.783-0.24v-0.361h4.656v0.361c-0.332,0.014-0.563,0.094-0.694,0.24s-0.195,0.52-0.195,1.117v5.352
		c0,0.639,0.066,1.041,0.2,1.207s0.429,0.248,0.886,0.248h0.527c0.411,0,0.682-0.078,0.813-0.234
		c0.13-0.156,0.195-0.547,0.195-1.172v-5.303c0-0.617-0.061-1.016-0.181-1.191c-0.121-0.176-0.354-0.264-0.699-0.264v-0.361h4.656
		v0.361c-0.385,0.014-0.654,0.115-0.808,0.309c-0.153,0.191-0.229,0.541-0.229,1.049v5.547c0,0.6,0.066,0.998,0.2,1.197
		C52.463,35.016,52.742,35.12,53.166,35.125z"/>
	<path fill="#FFFFFF" d="M59.651,35.487v-0.361c0.587,0,0.88-0.436,0.88-1.309v-4.473l-2.621,4.473
		c0.006,0.854,0.303,1.289,0.89,1.309v0.361h-4.656v-0.361c0.372,0,0.636-0.104,0.793-0.313c0.156-0.207,0.234-0.572,0.234-1.094
		v-5.635c0-0.91-0.343-1.367-1.027-1.367v-0.361H58.8v0.361c-0.339,0.014-0.572,0.111-0.699,0.293
		c-0.127,0.184-0.19,0.541-0.19,1.074v4.453l2.621-4.531c-0.007-0.48-0.078-0.816-0.215-1.006c-0.137-0.188-0.358-0.283-0.665-0.283
		v-0.361h4.656v0.361c-0.353,0.008-0.613,0.096-0.783,0.264c-0.169,0.17-0.254,0.496-0.254,0.977v5.811
		c0,0.541,0.076,0.902,0.229,1.084c0.153,0.184,0.423,0.273,0.808,0.273v0.361H59.651z"/>
	<path fill="#FFFFFF" d="M69.453,26.356v9.453c0,0.887-0.055,1.541-0.166,1.963c-0.163,0.613-0.487,1.104-0.974,1.475
		c-0.485,0.371-1.126,0.557-1.922,0.557c-0.802,0-1.394-0.162-1.775-0.488c-0.382-0.324-0.572-0.719-0.572-1.182
		c0-0.285,0.1-0.535,0.299-0.746c0.198-0.213,0.432-0.318,0.699-0.318c0.247,0,0.443,0.074,0.587,0.221s0.215,0.365,0.215,0.658
		c0,0.078-0.003,0.17-0.01,0.273c-0.013,0.137-0.02,0.232-0.02,0.283c0,0.229,0.052,0.398,0.156,0.508
		c0.104,0.111,0.238,0.166,0.401,0.166c0.15,0,0.279-0.064,0.387-0.195c0.107-0.129,0.161-0.314,0.161-0.557
		c0-0.129-0.02-0.393-0.059-0.791c-0.065-0.723-0.102-1.158-0.107-1.309l-0.029-2.314v-5.645l0.01-0.508
		c0-0.41-0.07-0.691-0.211-0.844c-0.14-0.154-0.435-0.252-0.885-0.299v-0.361H69.453z M68.084,21.942
		c0.417,0,0.771,0.145,1.062,0.435c0.29,0.289,0.436,0.639,0.436,1.049c0,0.417-0.147,0.771-0.44,1.064
		c-0.294,0.293-0.646,0.439-1.057,0.439s-0.763-0.146-1.057-0.439c-0.293-0.293-0.44-0.647-0.44-1.064
		c0-0.41,0.146-0.76,0.436-1.049C67.313,22.087,67.667,21.942,68.084,21.942z"/>
	<path fill="#FFFFFF" d="M76.996,34.139c-1.115,0.984-2.116,1.475-3.003,1.475c-0.522,0-0.956-0.17-1.302-0.512
		s-0.518-0.77-0.518-1.285c0-0.695,0.3-1.322,0.899-1.879s1.907-1.297,3.923-2.223v-0.918c0-0.689-0.038-1.125-0.112-1.303
		c-0.075-0.18-0.217-0.336-0.426-0.469c-0.209-0.135-0.443-0.201-0.704-0.201c-0.424,0-0.773,0.096-1.047,0.283
		c-0.17,0.117-0.255,0.254-0.255,0.41c0,0.137,0.092,0.307,0.274,0.508c0.248,0.281,0.372,0.551,0.372,0.811
		c0,0.32-0.119,0.592-0.357,0.816s-0.55,0.336-0.935,0.336c-0.41,0-0.755-0.123-1.031-0.371c-0.277-0.246-0.416-0.537-0.416-0.869
		c0-0.469,0.186-0.916,0.558-1.342c0.371-0.428,0.89-0.754,1.556-0.982c0.665-0.227,1.355-0.342,2.073-0.342
		c0.867,0,1.554,0.184,2.06,0.553c0.505,0.367,0.833,0.766,0.982,1.195c0.092,0.273,0.138,0.902,0.138,1.885v3.545
		c0,0.418,0.016,0.68,0.049,0.787c0.032,0.107,0.081,0.188,0.146,0.238c0.065,0.053,0.14,0.078,0.225,0.078
		c0.17,0,0.343-0.119,0.519-0.361l0.294,0.234c-0.326,0.482-0.664,0.832-1.013,1.051c-0.349,0.217-0.745,0.326-1.188,0.326
		c-0.521,0-0.93-0.121-1.223-0.365C77.24,35.004,77.062,34.635,76.996,34.139z M76.996,33.426V30.37
		c-0.789,0.463-1.376,0.957-1.761,1.484c-0.255,0.352-0.382,0.707-0.382,1.064c0,0.301,0.107,0.564,0.323,0.791
		c0.163,0.176,0.391,0.264,0.685,0.264C76.188,33.973,76.565,33.792,76.996,33.426z"/>
	<path fill="#FFFFFF" d="M89.536,30.575c1.135,0.287,1.855,0.652,2.162,1.1c0.307,0.445,0.46,0.912,0.46,1.4
		c0,0.756-0.319,1.393-0.959,1.91c-0.639,0.518-1.555,0.775-2.748,0.775c-1.631,0-2.808-0.631-3.532-1.895l0.304-0.176
		c0.75,0.736,1.513,1.104,2.289,1.104c0.58,0,1.043-0.178,1.389-0.531c0.346-0.355,0.519-0.832,0.519-1.432
		c0-1.133-0.675-1.738-2.024-1.816v-0.615c1.18,0,1.771-0.602,1.771-1.807c0-0.559-0.136-1.002-0.406-1.328
		c-0.271-0.324-0.638-0.488-1.101-0.488c-0.984,0-1.614,0.721-1.888,2.158h-0.372l0.138-2.852h0.371
		c0.111,0.262,0.248,0.391,0.411,0.391c0.065,0,0.225-0.031,0.479-0.098c0.71-0.195,1.33-0.293,1.858-0.293
		c0.894,0,1.622,0.205,2.187,0.615c0.563,0.41,0.846,0.965,0.846,1.66C91.688,29.471,90.971,30.211,89.536,30.575z"/>
	<path fill="#FFFFFF" d="M97.066,34.139c-1.115,0.984-2.116,1.475-3.003,1.475c-0.522,0-0.956-0.17-1.302-0.512
		s-0.518-0.77-0.518-1.285c0-0.695,0.3-1.322,0.899-1.879s1.907-1.297,3.923-2.223v-0.918c0-0.689-0.038-1.125-0.112-1.303
		c-0.075-0.18-0.217-0.336-0.426-0.469c-0.209-0.135-0.443-0.201-0.704-0.201c-0.424,0-0.773,0.096-1.047,0.283
		c-0.17,0.117-0.255,0.254-0.255,0.41c0,0.137,0.092,0.307,0.274,0.508c0.248,0.281,0.372,0.551,0.372,0.811
		c0,0.32-0.119,0.592-0.357,0.816s-0.55,0.336-0.935,0.336c-0.41,0-0.755-0.123-1.031-0.371c-0.277-0.246-0.416-0.537-0.416-0.869
		c0-0.469,0.186-0.916,0.558-1.342c0.371-0.428,0.89-0.754,1.556-0.982c0.665-0.227,1.355-0.342,2.073-0.342
		c0.867,0,1.554,0.184,2.06,0.553c0.505,0.367,0.833,0.766,0.982,1.195c0.092,0.273,0.138,0.902,0.138,1.885v3.545
		c0,0.418,0.016,0.68,0.049,0.787c0.032,0.107,0.081,0.188,0.146,0.238c0.065,0.053,0.14,0.078,0.225,0.078
		c0.17,0,0.343-0.119,0.519-0.361l0.294,0.234c-0.326,0.482-0.664,0.832-1.013,1.051c-0.349,0.217-0.745,0.326-1.188,0.326
		c-0.521,0-0.93-0.121-1.223-0.365C97.311,35.004,97.132,34.635,97.066,34.139z M97.066,33.426V30.37
		c-0.789,0.463-1.376,0.957-1.761,1.484c-0.255,0.352-0.382,0.707-0.382,1.064c0,0.301,0.107,0.564,0.323,0.791
		c0.163,0.176,0.391,0.264,0.685,0.264C96.258,33.973,96.636,33.792,97.066,33.426z"/>
	<path fill="#FFFFFF" d="M115.575,26.356v0.361c-0.431,0.047-0.711,0.162-0.842,0.348c-0.13,0.186-0.195,0.578-0.195,1.176v5.439
		c0,0.574,0.071,0.955,0.215,1.143c0.144,0.189,0.418,0.291,0.822,0.303v0.361h-4.656v-0.361c0.404,0,0.651-0.107,0.743-0.322
		c0.091-0.215,0.137-0.566,0.137-1.055v-6.777h-2.621v6.709c0,0.6,0.059,0.99,0.176,1.172c0.117,0.184,0.355,0.273,0.714,0.273
		v0.361h-4.656v-0.361c0.397-0.006,0.669-0.107,0.813-0.303c0.143-0.195,0.215-0.611,0.215-1.25v-5.459
		c0-0.598-0.08-0.98-0.239-1.146c-0.16-0.166-0.423-0.25-0.788-0.25v-0.361H115.575z"/>
	<path fill="#FFFFFF" d="M120.085,34.559v3.398c0,0.469,0.038,0.789,0.112,0.957c0.075,0.17,0.191,0.293,0.348,0.371
		s0.463,0.117,0.92,0.117v0.361h-5.214v-0.361c0.404-0.012,0.704-0.127,0.899-0.342c0.131-0.148,0.196-0.537,0.196-1.162V28.26
		c0-0.645-0.075-1.057-0.226-1.234c-0.15-0.18-0.44-0.281-0.87-0.309v-0.361h3.834v1.201c0.319-0.469,0.646-0.807,0.979-1.016
		c0.476-0.305,0.994-0.459,1.556-0.459c0.671,0,1.282,0.213,1.834,0.635c0.551,0.424,0.97,1.008,1.257,1.754
		c0.287,0.744,0.431,1.547,0.431,2.406c0,0.926-0.148,1.77-0.445,2.535c-0.297,0.764-0.728,1.348-1.291,1.748
		c-0.564,0.4-1.192,0.6-1.884,0.6c-0.502,0-0.972-0.109-1.408-0.332C120.786,35.26,120.443,34.969,120.085,34.559z M120.085,33.573
		c0.562,0.795,1.161,1.191,1.8,1.191c0.353,0,0.643-0.186,0.871-0.557c0.339-0.547,0.509-1.588,0.509-3.125
		c0-1.574-0.187-2.652-0.558-3.232c-0.248-0.383-0.581-0.576-0.998-0.576c-0.658,0-1.2,0.477-1.624,1.426V33.573z"/>
	<path fill="#FFFFFF" d="M133.203,35.487v-0.361c0.587,0,0.88-0.436,0.88-1.309v-4.473l-2.621,4.473
		c0.006,0.854,0.303,1.289,0.89,1.309v0.361h-4.656v-0.361c0.372,0,0.636-0.104,0.793-0.313c0.156-0.207,0.234-0.572,0.234-1.094
		v-5.635c0-0.91-0.343-1.367-1.027-1.367v-0.361h4.656v0.361c-0.339,0.014-0.572,0.111-0.699,0.293
		c-0.127,0.184-0.19,0.541-0.19,1.074v4.453l2.621-4.531c-0.007-0.48-0.078-0.816-0.215-1.006c-0.137-0.188-0.358-0.283-0.665-0.283
		v-0.361h4.656v0.361c-0.353,0.008-0.613,0.096-0.783,0.264c-0.169,0.17-0.254,0.496-0.254,0.977v5.811
		c0,0.541,0.076,0.902,0.229,1.084c0.153,0.184,0.423,0.273,0.808,0.273v0.361H133.203z"/>
	<path fill="#FFFFFF" d="M138.866,26.356h5.048c1.057,0,1.921,0.191,2.592,0.572c0.672,0.381,1.008,0.945,1.008,1.693
		c0,1.01-0.697,1.689-2.093,2.041c1.884,0.223,2.826,1.01,2.826,2.363c0,0.82-0.381,1.436-1.145,1.846
		c-0.763,0.41-1.81,0.615-3.14,0.615h-5.097v-0.361c0.45-0.045,0.729-0.148,0.837-0.313c0.107-0.162,0.161-0.48,0.161-0.957v-5.439
		c0-0.734-0.061-1.193-0.181-1.377c-0.121-0.182-0.394-0.289-0.817-0.322V26.356z M142.74,30.428
		c1.552-0.045,2.328-0.621,2.328-1.729c0-1.133-0.776-1.709-2.328-1.729V30.428z M142.74,31.043v2.998
		c0,0.307,0.049,0.523,0.146,0.65s0.31,0.189,0.636,0.189c0.548,0,1.015-0.191,1.399-0.576c0.385-0.383,0.577-0.871,0.577-1.465
		c0-0.625-0.214-1.08-0.641-1.367C144.431,31.188,143.725,31.043,142.74,31.043z"/>
	<path fill="#FFFFFF" d="M153.488,34.559v3.398c0,0.469,0.038,0.789,0.112,0.957c0.075,0.17,0.191,0.293,0.348,0.371
		s0.463,0.117,0.92,0.117v0.361h-5.214v-0.361c0.404-0.012,0.704-0.127,0.899-0.342c0.131-0.148,0.196-0.537,0.196-1.162V28.26
		c0-0.645-0.075-1.057-0.226-1.234c-0.15-0.18-0.44-0.281-0.87-0.309v-0.361h3.834v1.201c0.319-0.469,0.646-0.807,0.979-1.016
		c0.476-0.305,0.994-0.459,1.556-0.459c0.671,0,1.282,0.213,1.834,0.635c0.551,0.424,0.97,1.008,1.257,1.754
		c0.287,0.744,0.431,1.547,0.431,2.406c0,0.926-0.148,1.77-0.445,2.535c-0.297,0.764-0.728,1.348-1.291,1.748
		c-0.564,0.4-1.192,0.6-1.884,0.6c-0.502,0-0.972-0.109-1.408-0.332C154.189,35.26,153.847,34.969,153.488,34.559z M153.488,33.573
		c0.562,0.795,1.161,1.191,1.8,1.191c0.353,0,0.643-0.186,0.871-0.557c0.339-0.547,0.509-1.588,0.509-3.125
		c0-1.574-0.187-2.652-0.558-3.232c-0.248-0.383-0.581-0.576-0.998-0.576c-0.658,0-1.2,0.477-1.624,1.426V33.573z"/>
	<path fill="#FFFFFF" d="M168.837,30.594h-5.019c0.059,1.211,0.382,2.168,0.969,2.871c0.449,0.541,0.991,0.811,1.623,0.811
		c0.392,0,0.747-0.109,1.066-0.326c0.319-0.219,0.662-0.611,1.027-1.178l0.333,0.215c-0.496,1.01-1.044,1.725-1.644,2.145
		c-0.601,0.42-1.295,0.629-2.084,0.629c-1.356,0-2.384-0.52-3.081-1.563c-0.562-0.84-0.842-1.881-0.842-3.125
		c0-1.523,0.413-2.736,1.237-3.637c0.825-0.902,1.792-1.354,2.9-1.354c0.927,0,1.73,0.379,2.412,1.139
		C168.417,27.979,168.784,29.104,168.837,30.594z M166.43,29.94c0-1.047-0.057-1.768-0.171-2.158s-0.292-0.686-0.533-0.889
		c-0.137-0.117-0.319-0.176-0.548-0.176c-0.339,0-0.616,0.166-0.831,0.498c-0.385,0.58-0.577,1.375-0.577,2.383v0.342H166.43z"/>
	<path fill="#FFFFFF" d="M178.726,26.356v0.361c-0.43,0-0.706,0.111-0.826,0.332c-0.121,0.223-0.181,0.516-0.181,0.879v5.908
		c0,0.527,0.079,0.871,0.239,1.031c0.16,0.158,0.416,0.246,0.768,0.258v2.764h-0.361c-0.15-1.602-1.164-2.402-3.043-2.402h-2.65
		c-1.813,0-2.814,0.801-3.003,2.402h-0.362v-2.764c0.815-0.064,1.453-0.801,1.912-2.207c0.46-1.406,0.689-2.906,0.689-4.502
		c0-0.48-0.035-0.844-0.107-1.088c-0.071-0.244-0.174-0.406-0.308-0.484s-0.377-0.119-0.729-0.127v-0.361H178.726z M174.989,26.971
		h-2.416v1.436c0,2.807-0.516,4.965-1.546,6.475h3.013c0.633,0,0.949-0.387,0.949-1.162V26.971z"/>
	<path fill="#FFFFFF" d="M178.903,35.487v-0.361c0.378,0,0.645-0.096,0.798-0.287c0.152-0.193,0.229-0.559,0.229-1.1v-5.605
		c0-0.572-0.075-0.951-0.225-1.137c-0.15-0.186-0.418-0.279-0.803-0.279v-0.361h4.656v0.361c-0.326,0.014-0.556,0.098-0.689,0.254
		s-0.2,0.512-0.2,1.064v2.412h2.621v-2.412c0-0.455-0.049-0.789-0.146-1c-0.098-0.213-0.343-0.318-0.733-0.318v-0.361h4.646v0.361
		c-0.379,0-0.645,0.094-0.798,0.279s-0.229,0.496-0.229,0.932v5.811c0,0.574,0.075,0.945,0.225,1.113
		c0.15,0.17,0.418,0.262,0.803,0.273v0.361h-4.646v-0.361c0.326-0.006,0.554-0.082,0.685-0.229c0.13-0.146,0.195-0.51,0.195-1.09
		v-2.744h-2.621v2.676c0,0.58,0.066,0.955,0.2,1.129c0.134,0.172,0.363,0.258,0.689,0.258v0.361H178.903z"/>
	<path fill="#FFFFFF" d="M197.783,30.594h-5.019c0.059,1.211,0.382,2.168,0.969,2.871c0.449,0.541,0.991,0.811,1.623,0.811
		c0.392,0,0.747-0.109,1.066-0.326c0.319-0.219,0.662-0.611,1.027-1.178l0.333,0.215c-0.496,1.01-1.044,1.725-1.644,2.145
		c-0.601,0.42-1.295,0.629-2.084,0.629c-1.356,0-2.384-0.52-3.081-1.563c-0.562-0.84-0.842-1.881-0.842-3.125
		c0-1.523,0.413-2.736,1.237-3.637c0.825-0.902,1.792-1.354,2.9-1.354c0.927,0,1.73,0.379,2.412,1.139
		C197.363,27.979,197.73,29.104,197.783,30.594z M195.376,29.94c0-1.047-0.057-1.768-0.171-2.158s-0.292-0.686-0.533-0.889
		c-0.137-0.117-0.319-0.176-0.548-0.176c-0.339,0-0.616,0.166-0.831,0.498c-0.385,0.58-0.577,1.375-0.577,2.383v0.342H195.376z"/>
	<path fill="#FFFFFF" d="M206.936,34.559v3.398c0,0.469,0.038,0.789,0.112,0.957c0.075,0.17,0.191,0.293,0.348,0.371
		s0.463,0.117,0.92,0.117v0.361h-5.214v-0.361c0.404-0.012,0.704-0.127,0.899-0.342c0.131-0.148,0.196-0.537,0.196-1.162V28.26
		c0-0.645-0.075-1.057-0.226-1.234c-0.15-0.18-0.44-0.281-0.87-0.309v-0.361h3.834v1.201c0.319-0.469,0.646-0.807,0.979-1.016
		c0.476-0.305,0.994-0.459,1.556-0.459c0.671,0,1.282,0.213,1.834,0.635c0.551,0.424,0.97,1.008,1.257,1.754
		c0.287,0.744,0.431,1.547,0.431,2.406c0,0.926-0.148,1.77-0.445,2.535c-0.297,0.764-0.728,1.348-1.291,1.748
		c-0.564,0.4-1.192,0.6-1.884,0.6c-0.502,0-0.972-0.109-1.408-0.332C207.637,35.26,207.294,34.969,206.936,34.559z M206.936,33.573
		c0.562,0.795,1.161,1.191,1.8,1.191c0.353,0,0.643-0.186,0.871-0.557c0.339-0.547,0.509-1.588,0.509-3.125
		c0-1.574-0.187-2.652-0.558-3.232c-0.248-0.383-0.581-0.576-0.998-0.576c-0.658,0-1.2,0.477-1.624,1.426V33.573z"/>
	<path fill="#FFFFFF" d="M222.285,30.594h-5.019c0.059,1.211,0.382,2.168,0.969,2.871c0.449,0.541,0.991,0.811,1.623,0.811
		c0.392,0,0.747-0.109,1.066-0.326c0.319-0.219,0.662-0.611,1.027-1.178l0.333,0.215c-0.496,1.01-1.044,1.725-1.644,2.145
		c-0.601,0.42-1.295,0.629-2.084,0.629c-1.356,0-2.384-0.52-3.081-1.563c-0.562-0.84-0.842-1.881-0.842-3.125
		c0-1.523,0.413-2.736,1.237-3.637c0.825-0.902,1.792-1.354,2.9-1.354c0.927,0,1.73,0.379,2.412,1.139
		C221.865,27.979,222.232,29.104,222.285,30.594z M219.878,29.94c0-1.047-0.057-1.768-0.171-2.158s-0.292-0.686-0.533-0.889
		c-0.137-0.117-0.319-0.176-0.548-0.176c-0.339,0-0.616,0.166-0.831,0.498c-0.385,0.58-0.577,1.375-0.577,2.383v0.342H219.878z"/>
	<path fill="#FFFFFF" d="M223.458,35.125c0.378-0.025,0.643-0.125,0.793-0.297c0.149-0.174,0.225-0.516,0.225-1.031v-5.801
		c0-0.461-0.07-0.783-0.21-0.961c-0.141-0.18-0.41-0.285-0.808-0.318v-0.361h8.041v2.383h-0.362
		c-0.149-0.742-0.355-1.223-0.616-1.439c-0.261-0.219-0.76-0.328-1.496-0.328h-1.81v6.885c0,0.457,0.074,0.779,0.225,0.967
		c0.15,0.189,0.453,0.291,0.91,0.303v0.361h-4.892V35.125z"/>
	<path fill="#FFFFFF" d="M237.863,35.487v-0.361c0.587,0,0.88-0.436,0.88-1.309v-4.473l-2.621,4.473
		c0.006,0.854,0.303,1.289,0.89,1.309v0.361h-4.656v-0.361c0.372,0,0.636-0.104,0.793-0.313c0.156-0.207,0.234-0.572,0.234-1.094
		v-5.635c0-0.91-0.343-1.367-1.027-1.367v-0.361h4.656v0.361c-0.339,0.014-0.572,0.111-0.699,0.293
		c-0.127,0.184-0.19,0.541-0.19,1.074v4.453l2.621-4.531c-0.007-0.48-0.078-0.816-0.215-1.006c-0.137-0.188-0.358-0.283-0.665-0.283
		v-0.361h4.656v0.361c-0.353,0.008-0.613,0.096-0.783,0.264c-0.169,0.17-0.254,0.496-0.254,0.977v5.811
		c0,0.541,0.076,0.902,0.229,1.084c0.153,0.184,0.423,0.273,0.808,0.273v0.361H237.863z"/>
	<path fill="#FFFFFF" d="M250.952,33.133l0.304,0.234c-0.431,0.809-0.968,1.408-1.609,1.803c-0.643,0.393-1.325,0.59-2.05,0.59
		c-1.22,0-2.194-0.459-2.925-1.377s-1.096-2.021-1.096-3.311c0-1.242,0.333-2.336,0.998-3.281c0.802-1.139,1.907-1.709,3.316-1.709
		c0.945,0,1.697,0.238,2.255,0.713c0.558,0.477,0.836,1.006,0.836,1.592c0,0.371-0.112,0.668-0.337,0.889
		c-0.226,0.223-0.521,0.332-0.886,0.332c-0.385,0-0.703-0.127-0.954-0.381s-0.405-0.705-0.464-1.357
		c-0.04-0.41-0.134-0.695-0.284-0.859c-0.15-0.162-0.326-0.244-0.528-0.244c-0.313,0-0.58,0.166-0.802,0.498
		c-0.34,0.502-0.509,1.27-0.509,2.305c0,0.859,0.137,1.682,0.411,2.467c0.273,0.783,0.648,1.369,1.125,1.752
		c0.358,0.281,0.782,0.42,1.271,0.42c0.319,0,0.622-0.074,0.909-0.225C250.222,33.834,250.561,33.551,250.952,33.133z"/>
	<path fill="#FFFFFF" d="M254.229,35.487v-0.361c0.392,0,0.661-0.1,0.808-0.303c0.146-0.201,0.22-0.602,0.22-1.201v-6.65h-0.909
		c-0.64,0-1.083,0.115-1.331,0.342c-0.248,0.229-0.443,0.703-0.587,1.426h-0.361v-2.383h9.116v2.383h-0.361
		c-0.117-0.65-0.29-1.107-0.519-1.371s-0.688-0.396-1.38-0.396h-0.929v6.65c0,0.619,0.073,1.023,0.22,1.211
		c0.147,0.189,0.416,0.287,0.808,0.293v0.361H254.229z"/>
	<path fill="#FFFFFF" d="M264.84,34.559v3.398c0,0.469,0.038,0.789,0.112,0.957c0.075,0.17,0.191,0.293,0.348,0.371
		s0.463,0.117,0.92,0.117v0.361h-5.214v-0.361c0.404-0.012,0.704-0.127,0.899-0.342c0.131-0.148,0.196-0.537,0.196-1.162V28.26
		c0-0.645-0.075-1.057-0.226-1.234c-0.15-0.18-0.44-0.281-0.87-0.309v-0.361h3.834v1.201c0.319-0.469,0.646-0.807,0.979-1.016
		c0.476-0.305,0.994-0.459,1.556-0.459c0.671,0,1.282,0.213,1.834,0.635c0.551,0.424,0.97,1.008,1.257,1.754
		c0.287,0.744,0.431,1.547,0.431,2.406c0,0.926-0.148,1.77-0.445,2.535c-0.297,0.764-0.728,1.348-1.291,1.748
		c-0.564,0.4-1.192,0.6-1.884,0.6c-0.502,0-0.972-0.109-1.408-0.332C265.541,35.26,265.198,34.969,264.84,34.559z M264.84,33.573
		c0.562,0.795,1.161,1.191,1.8,1.191c0.353,0,0.643-0.186,0.871-0.557c0.339-0.547,0.509-1.588,0.509-3.125
		c0-1.574-0.187-2.652-0.558-3.232c-0.248-0.383-0.581-0.576-0.998-0.576c-0.658,0-1.2,0.477-1.624,1.426V33.573z"/>
	<path fill="#FFFFFF" d="M280.189,30.594h-5.019c0.059,1.211,0.382,2.168,0.969,2.871c0.449,0.541,0.991,0.811,1.623,0.811
		c0.392,0,0.747-0.109,1.066-0.326c0.319-0.219,0.662-0.611,1.027-1.178l0.333,0.215c-0.496,1.01-1.044,1.725-1.644,2.145
		c-0.601,0.42-1.295,0.629-2.084,0.629c-1.356,0-2.384-0.52-3.081-1.563c-0.562-0.84-0.842-1.881-0.842-3.125
		c0-1.523,0.413-2.736,1.237-3.637c0.825-0.902,1.792-1.354,2.9-1.354c0.927,0,1.73,0.379,2.412,1.139
		C279.77,27.979,280.137,29.104,280.189,30.594z M277.782,29.94c0-1.047-0.057-1.768-0.171-2.158s-0.292-0.686-0.533-0.889
		c-0.137-0.117-0.319-0.176-0.548-0.176c-0.339,0-0.616,0.166-0.831,0.498c-0.385,0.58-0.577,1.375-0.577,2.383v0.342H277.782z"/>
</g>
</svg>
